<?xml version="1.0" encoding="utf-8"?>
<!-- Generator: Adobe Illustrator 25.0.1, SVG Export Plug-In . SVG Version: 6.00 Build 0)  -->
<svg version="1.1" id="Layer_1" xmlns="http://www.w3.org/2000/svg" xmlns:xlink="http://www.w3.org/1999/xlink" x="0px" y="0px"
	 viewBox="0 0 1121.8 211.9" style="enable-background:new 0 0 1121.8 211.9;" xml:space="preserve">
<style type="text/css">
	.st0{fill:#0066CC;}
	.st1{fill:#FFFFFF;}
</style>
<g id="type">
	<path class="st0" d="M284.5,77.3l19.1,22.9l19.1-22.9h10v58h-11.2V94.6h-0.3L304.4,115h-1.6L286,94.6h-0.3v40.7h-11.2v-58
		L284.5,77.3z"/>
	<path class="st0" d="M360.8,77.3v58h-11.2v-58H360.8z"/>
	<path class="st0" d="M391.5,77.3v49.2h28.2v8.8h-39.4v-58L391.5,77.3z"/>
	<path class="st0" d="M444.9,77.3v26.8h0.2l21.2-26.8h12.8l-21.5,27.3l28,30.7h-14.4l-26.3-28.5v28.5h-11.2v-58L444.9,77.3z"/>
	<path class="st0" d="M535.4,77.3v8.8h-26.2v15.2h25.2v8.8h-25.2v16.5H536v8.8h-38.1v-58L535.4,77.3z"/>
	<path class="st0" d="M562.7,77.3l34.5,40.5V77.3h11v58h-9.7l-34.7-41.2v41.2h-11v-58H562.7z"/>
	<path class="st0" d="M664,77.3v58h-11.2v-58H664z"/>
	<path class="st0" d="M693.3,77.3l34.5,40.5V77.3h11v58h-9.6l-34.7-41.1v41.2h-11v-58L693.3,77.3z"/>
	<path class="st0" d="M774.7,76.6c5.7,0,11.3,1.5,16.3,4.2v10c-6-3.6-11.3-5.4-16-5.4c-2.3-0.1-4.6,0.4-6.6,1.6
		c-1.5,0.9-2.4,2.6-2.4,4.4c0,2.2,1.5,4.2,4.4,6.1c0.8,0.6,4,2.1,9.6,4.6c4.8,2.3,8.2,4.7,10.3,7.5c2.1,2.8,3.3,6.3,3.2,9.8
		c0.2,4.6-1.8,9.1-5.4,12.1c-3.6,3.1-8.2,4.6-13.9,4.6c-3.2,0.1-6.5-0.3-9.6-1.2c-3.2-1-6.2-2.5-9-4.2v-11c6.2,5.1,12,7.7,17.5,7.7
		c2.3,0.1,4.7-0.5,6.7-1.8c1.6-1,2.6-2.8,2.5-4.7c0-2.7-1.5-4.9-4.4-6.6c-2.4-1.3-5.6-2.9-9.4-4.8c-4.6-2.1-8-4.5-10.2-7.3
		c-2.2-2.7-3.4-6.1-3.4-9.6c-0.2-4.5,1.9-8.9,5.4-11.6C763.9,78,768.7,76.6,774.7,76.6z"/>
	<path class="st0" d="M855.7,77.3v8.8h-20.6v49.2h-11.2V86.1h-20.6v-8.8H855.7z"/>
	<path class="st0" d="M880.5,77.3v58h-11.2v-58H880.5z"/>
	<path class="st0" d="M946.5,77.3v8.8h-20.6v49.2h-11.2V86.1h-20.6v-8.8H946.5z"/>
	<path class="st0" d="M968.3,77.3v33.8c-0.1,2.8,0.4,5.6,1.4,8.3c1,2.1,2.6,3.9,4.6,5.1c2.3,1.4,4.9,2.1,7.5,2
		c2.8,0.1,5.5-0.6,8-1.9c2.1-1.2,3.8-3,4.8-5.1c1.1-2.9,1.6-5.9,1.5-9v-33h10.2v34.5c0,7.8-2.1,13.8-6.4,18
		c-4.3,4.2-10.3,6.3-18.1,6.3c-4.4,0.1-8.8-0.9-12.7-2.9c-3.5-1.8-6.4-4.7-8.2-8.3c-2-3.9-2.9-8.3-2.8-12.7V77.3H968.3z"/>
	<path class="st0" d="M1070.4,77.3v8.8h-20.6v49.2h-11.2V86.1H1018v-8.8H1070.4z"/>
	<path class="st0" d="M1121.2,77.3v8.8h-26.3v15.2h25.2v8.8h-25.2v16.5h26.9v8.8h-38.1v-58L1121.2,77.3z"/>
</g>
<g id="MI_initials">
	<rect x="135.3" y="69" class="st1" width="7.9" height="74.6"/>
	<polygon class="st1" points="118.9,69 113.1,69 98.8,69 90.8,69 76.5,69 68.6,69 68.6,77 68.6,143.7 76.5,143.7 76.5,77 90.8,77 
		90.8,143.7 98.8,143.7 98.8,77 113.1,77 113.1,143.7 121,143.7 121,69 	"/>
</g>
<g>
	<rect x="120.3" y="77.1" class="st0" width="14.3" height="14.2"/>
	<rect x="98.3" y="77.1" class="st0" width="14.2" height="14.2"/>
	<rect x="98.3" y="99.2" class="st0" width="14.2" height="14.2"/>
	<path class="st0" d="M98.3,69.2h14.2V17.5h7.9v51.7h14.3V31.5h7.9v37.7h37.7v7.9h-37.7v14.2h51.7v7.9h-51.7v14.2h68.1
		c0.2-2.5,0.3-5,0.3-7.5c0-58.2-47.2-105.5-105.5-105.5c-2.4,0-4.8,0.1-7.2,0.2V69.2z"/>
	<rect x="120.3" y="99.2" class="st0" width="14.3" height="14.2"/>
	<rect x="120.3" y="121.4" class="st0" width="14.3" height="14.2"/>
	<rect x="76.1" y="121.4" class="st0" width="14.3" height="14.2"/>
	<rect x="76.1" y="77.1" class="st0" width="14.3" height="14.2"/>
	<path class="st0" d="M112.5,143.5H98.3v51.7h-7.9v-51.7H76.1v37.7h-7.9v-37.7H30.5v-7.9h37.7v-14.2H16.5v-7.9h51.7V99.2H0.2
		c-0.1,2.2-0.2,4.5-0.2,6.7c0,58.2,47.2,105.5,105.5,105.5c2.4,0,4.7-0.1,7.1-0.2V143.5z"/>
	<rect x="98.3" y="121.4" class="st0" width="14.2" height="14.2"/>
	<path class="st0" d="M142.5,121.4v22.1h-7.9v0h-14.3v66.9c46.1-6.5,82.7-42.9,89.4-89H142.5z"/>
	<rect x="76.1" y="99.2" class="st0" width="14.3" height="14.2"/>
	<path class="st0" d="M68.2,91.3V77.1v-7.9h7.9h14.3V1.6C44,8.2,7.4,44.9,1,91.3H68.2z"/>
</g>
</svg>
