<svg xmlns="http://www.w3.org/2000/svg" xmlns:xlink="http://www.w3.org/1999/xlink" viewBox="0 0 1121.76 211.94"><defs><style>.cls-1{fill:#06c;}.cls-2{fill:url(#radial-gradient);}.cls-3{fill:#fff;}</style><radialGradient id="radial-gradient" cx="106.39" cy="105.75" r="105.42" gradientUnits="userSpaceOnUse"><stop offset="0" stop-color="#237bd3"/><stop offset="0.09" stop-color="#3485d6"/><stop offset="0.27" stop-color="#62a1e0"/><stop offset="0.52" stop-color="#abcdee"/><stop offset="0.79" stop-color="#fff"/></radialGradient></defs><title>MI_Logo_Blue_OneLine_No Guides_RGB</title><g id="type"><path class="cls-1" d="M455.18,274.9l19.06,22.88L493.3,274.9h10v58H492.1V292.17h-.34L475,312.6h-1.58l-16.78-20.43h-.33v40.74H445.09v-58Z" transform="translate(-170.63 -197.59)"/><path class="cls-1" d="M531.48,274.9v58H520.27v-58Z" transform="translate(-170.63 -197.59)"/><path class="cls-1" d="M562.11,274.9v49.24h28.15v8.77H550.9v-58Z" transform="translate(-170.63 -197.59)"/><path class="cls-1" d="M615.53,274.9v26.78h.25L637,274.9h12.75L628.2,302.22l28,30.69H641.82l-26.29-28.49v28.49H604.32v-58Z" transform="translate(-170.63 -197.59)"/><path class="cls-1" d="M706,274.9v8.76H679.75V298.9h25.17v8.76H679.75v16.48h26.87v8.77H668.54v-58Z" transform="translate(-170.63 -197.59)"/><path class="cls-1" d="M733.3,274.9l34.47,40.48V274.9h11v58H769.1l-34.68-41.16v41.16h-11v-58Z" transform="translate(-170.63 -197.59)"/><path class="cls-1" d="M834.66,274.9v58H823.45v-58Z" transform="translate(-170.63 -197.59)"/><path class="cls-1" d="M863.92,274.9l34.46,40.48V274.9h11v58h-9.64L865,291.75v41.16h-11v-58Z" transform="translate(-170.63 -197.59)"/><path class="cls-1" d="M945.29,274.15a33.94,33.94,0,0,1,16.32,4.23v10q-9-5.44-16-5.44a11.59,11.59,0,0,0-6.62,1.64,5.07,5.07,0,0,0-2.39,4.38q0,3.29,4.44,6.06,1.25.84,9.6,4.65,7.14,3.38,10.29,7.48A15.7,15.7,0,0,1,964.1,317a15.06,15.06,0,0,1-5.38,12.06q-5.37,4.59-13.93,4.59a33.18,33.18,0,0,1-9.57-1.22,41.38,41.38,0,0,1-9-4.22v-11q9.3,7.72,17.52,7.72a11.32,11.32,0,0,0,6.65-1.78,5.53,5.53,0,0,0,2.53-4.74q0-4-4.4-6.56-3.66-2-9.43-4.77c-4.56-2.08-8-4.5-10.23-7.27a14.79,14.79,0,0,1-3.39-9.63,14.14,14.14,0,0,1,5.44-11.65Q936.37,274.16,945.29,274.15Z" transform="translate(-170.63 -197.59)"/><path class="cls-1" d="M1026.28,274.9v8.76h-20.6v49.25H994.47V283.66h-20.6V274.9Z" transform="translate(-170.63 -197.59)"/><path class="cls-1" d="M1051.1,274.9v58h-11.22v-58Z" transform="translate(-170.63 -197.59)"/><path class="cls-1" d="M1117.11,274.9v8.76h-20.6v49.25H1085.3V283.66h-20.59V274.9Z" transform="translate(-170.63 -197.59)"/><path class="cls-1" d="M1138.89,274.9v33.76a19.91,19.91,0,0,0,1.42,8.26,11.63,11.63,0,0,0,4.63,5.06,13.91,13.91,0,0,0,7.49,2,15.64,15.64,0,0,0,8-1.89,11.44,11.44,0,0,0,4.79-5.15,21.89,21.89,0,0,0,1.51-9v-33h10.21v34.46q0,11.72-6.39,18t-18.07,6.29a26.68,26.68,0,0,1-12.72-2.86,19.26,19.26,0,0,1-8.23-8.29,27.06,27.06,0,0,1-2.83-12.72V274.9Z" transform="translate(-170.63 -197.59)"/><path class="cls-1" d="M1241,274.9v8.76h-20.59v49.25h-11.21V283.66h-20.6V274.9Z" transform="translate(-170.63 -197.59)"/><path class="cls-1" d="M1291.81,274.9v8.76h-26.29V298.9h25.17v8.76h-25.17v16.48h26.87v8.77h-38.08v-58Z" transform="translate(-170.63 -197.59)"/></g><g id="circle_gradation" data-name="circle gradation"><circle class="cls-2" cx="106.39" cy="105.75" r="105.42"/></g><g id="blue_circle_w_o_lines" data-name="blue circle w/o lines"><rect class="cls-1" x="120.98" y="76.96" width="14.32" height="14.31"/><rect class="cls-1" x="98.78" y="76.96" width="14.27" height="14.31"/><rect class="cls-1" x="98.78" y="99.21" width="14.27" height="14.28"/><path class="cls-1" d="M269.41,266.61h14.27V214.69h7.93v51.92h14.32V228.69h7.93v37.92h37.92v7.93H313.86v14.31h51.92v7.94H313.86v14.28H382.3q.26-3.72.26-7.52a106,106,0,0,0-106-106q-3.63,0-7.19.24Z" transform="translate(-170.63 -197.59)"/><rect class="cls-1" x="120.98" y="99.21" width="14.32" height="14.28"/><rect class="cls-1" x="120.98" y="121.43" width="14.32" height="14.3"/><rect class="cls-1" x="76.53" y="121.43" width="14.32" height="14.3"/><rect class="cls-1" x="76.53" y="76.96" width="14.32" height="14.31"/><path class="cls-1" d="M283.68,341.24H269.41v51.94h-7.93V341.24H247.16v37.94h-7.93V341.24H201.3v-7.92h37.93V319H187.3v-7.95h51.93V296.79H170.85c-.14,2.24-.22,4.49-.22,6.76a106,106,0,0,0,106,106q3.57,0,7.08-.24Z" transform="translate(-170.63 -197.59)"/><rect class="cls-1" x="98.78" y="121.43" width="14.27" height="14.3"/><path class="cls-1" d="M313.86,319v22.23H291.61v67.22A106,106,0,0,0,381.44,319Z" transform="translate(-170.63 -197.59)"/><rect class="cls-1" x="76.53" y="99.21" width="14.32" height="14.28"/><path class="cls-1" d="M239.23,288.85V266.61h22.25v-68a106,106,0,0,0-89.83,90.19Z" transform="translate(-170.63 -197.59)"/></g><g id="MI_initials" data-name="MI initials"><rect class="cls-3" x="135.3" y="69.03" width="7.93" height="74.63"/><polygon class="cls-3" points="118.86 69.03 113.05 69.03 98.78 69.03 90.85 69.03 76.53 69.03 68.6 69.03 68.6 76.96 68.6 143.66 76.53 143.66 76.53 76.96 90.85 76.96 90.85 143.66 98.78 143.66 98.78 76.96 113.05 76.96 113.05 143.66 120.98 143.66 120.98 69.03 118.86 69.03"/></g></svg>
